<?xml version="1.0" encoding="utf-8"?>
<!-- Generator: Adobe Illustrator 24.0.0, SVG Export Plug-In . SVG Version: 6.00 Build 0)  -->
<svg version="1.1" id="Layer_1" xmlns="http://www.w3.org/2000/svg" xmlns:xlink="http://www.w3.org/1999/xlink" x="0px" y="0px"
	 viewBox="0 0 256 256" enable-background="new 0 0 256 256" xml:space="preserve">
<g>
</g>
<g>
	<path fill="#F0C020" d="M50.755,111.29c-3.961-1.309-8.051-2.453-10.348-12.345c-2.115,9.112-5.504,10.745-10.348,12.345
		c7.9,2.61,9.092,6.933,10.348,12.345C42.572,114.305,46.153,112.81,50.755,111.29z"/>
	<path fill="#F0C020" d="M215.592,26.074c-3.961-1.309-8.051-2.453-10.348-12.345c-2.115,9.112-5.504,10.745-10.348,12.345
		c7.9,2.61,9.092,6.933,10.348,12.345C207.409,29.09,210.99,27.595,215.592,26.074z"/>
	<path fill="#F0C020" d="M225.94,136.295c-3.961-1.309-8.051-2.453-10.348-12.345c-2.115,9.112-5.504,10.745-10.348,12.345
		c7.9,2.61,9.092,6.933,10.348,12.345C217.757,139.311,221.338,137.816,225.94,136.295z"/>
	<path d="M37.817,124.236c0.637,2.743,4.545,2.742,5.182,0c1.905-8.212,4.709-9.139,8.591-10.421c2.424-0.801,2.43-4.249,0-5.051
		c-3.729-1.228-6.641-2.022-8.591-10.421c-0.635-2.737-4.548-2.73-5.181,0c-1.907,8.213-4.566,9.092-8.591,10.422
		c-2.424,0.801-2.43,4.248,0,5.051C35.912,116.024,36.67,119.291,37.817,124.236z M40.417,106.713
		c1.2,2.161,2.566,3.592,3.977,4.601c-1.472,1.035-2.794,2.423-3.934,4.439c-0.942-1.587-2.25-3.089-4.164-4.403
		C37.845,110.288,39.231,108.847,40.417,106.713z"/>
	<path d="M207.836,39.021c1.905-8.212,4.709-9.139,8.591-10.421c2.424-0.801,2.43-4.249,0-5.051
		c-3.729-1.228-6.641-2.022-8.591-10.421c-0.635-2.737-4.548-2.73-5.181,0c-1.907,8.213-4.566,9.092-8.591,10.422
		c-2.424,0.801-2.43,4.248,0,5.051c6.686,2.209,7.444,5.476,8.591,10.421C203.291,41.764,207.199,41.763,207.836,39.021z
		 M201.134,26.135c1.549-1.062,2.934-2.504,4.121-4.638c1.2,2.161,2.566,3.592,3.978,4.601c-1.472,1.035-2.794,2.423-3.934,4.439
		C204.356,28.951,203.048,27.449,201.134,26.135z"/>
	<path d="M204.411,138.821c6.686,2.209,7.444,5.476,8.591,10.421c0.637,2.743,4.545,2.742,5.182,0
		c1.905-8.212,4.709-9.139,8.591-10.421c2.424-0.801,2.43-4.249,0-5.051c-3.729-1.228-6.641-2.022-8.591-10.421
		c-0.635-2.737-4.548-2.73-5.181,0c-1.907,8.213-4.566,9.091-8.591,10.422C201.987,134.571,201.981,138.018,204.411,138.821z
		 M215.602,131.719c1.2,2.161,2.566,3.591,3.978,4.601c-1.472,1.035-2.794,2.423-3.934,4.439c-0.942-1.587-2.25-3.089-4.164-4.403
		C213.03,135.294,214.416,133.852,215.602,131.719z"/>
	<g>
		<path fill="#FFCAC6" d="M128.001,249.044c-29.129-0.152-76.394-29.037-69.638-77.25c12.055-85.834,7.613-45.935,6.283-85.509
			C63.593,54.624,69.941,6.96,128,6.96c58.404,0,64.259,47.977,63.141,79.72c-1.331,38.18-5.293,1.172,6.497,85.114
			C204.45,220.411,156.353,249.192,128.001,249.044z"/>
		<path fill="#FC5D3D" d="M191.141,86.68c-5.428,9.49-14.704,18.684-25.181,26.776c-12.451,9.638-26.595,17.697-37.96,22.845
			c-9.72-4.391-24.589-12.533-37.96-22.812c-10.395-8.01-19.901-17.319-25.394-27.204C63.593,54.624,69.941,6.96,128,6.96
			C186.404,6.96,192.259,54.937,191.141,86.68z"/>
		<path fill="#FEB69F" d="M165.96,113.456c-12.451,9.638-26.595,17.697-37.96,22.845c-9.72-4.391-24.589-12.533-37.96-22.812
			c4.26-5.164,9.589-9.457,15.658-12.533c-8.849-6.727-14.556-17.352-14.556-29.325c0-20.362,16.496-36.858,36.858-36.858
			s36.858,16.496,36.858,36.858c0,11.974-5.707,22.598-14.556,29.325C156.488,104.092,161.953,108.566,165.96,113.456z"/>
		<path fill="#FFFFFF" d="M128,233.368c-10.136,0-19.832-3.143-28.042-9.087c-1.118-0.81-1.368-2.373-0.558-3.491
			c0.809-1.119,2.372-1.368,3.491-0.559c7.351,5.323,16.032,8.137,25.108,8.137c21.859,0,53.709-21.846,49.245-53.711l-4.257-30.31
			c-0.192-1.367,0.761-2.631,2.128-2.823c1.376-0.193,2.631,0.761,2.823,2.128l4.257,30.311
			C187.183,209.561,152.159,233.368,128,233.368z M171.598,134.444l-0.557-3.961c-0.192-1.368,0.761-2.632,2.128-2.824
			c1.362-0.191,2.631,0.761,2.823,2.127l0.557,3.961c0.192,1.368-0.761,2.632-2.128,2.824
			C173.058,136.765,171.79,135.814,171.598,134.444z"/>
		<g>
			<path d="M143.1,177.52c0-8.32-6.77-15.09-15.1-15.1c-8.33,0.01-15.101,6.78-15.101,15.1c0,7.476,5.46,13.687,12.601,14.885v5.765
				h-5.7c-1.38,0-2.5,1.12-2.5,2.49c0,1.38,1.12,2.51,2.5,2.51h5.7v8.03c0,1.38,1.12,2.5,2.5,2.5s2.5-1.12,2.5-2.5v-8.03h5.7
				c1.38,0,2.5-1.13,2.5-2.51c0-1.37-1.12-2.49-2.5-2.49h-5.7v-5.765C137.641,191.207,143.1,184.996,143.1,177.52z M117.899,177.52
				c0.011-5.56,4.54-10.09,10.101-10.1c5.56,0.01,10.09,4.54,10.1,10.1c-0.01,5.56-4.54,10.1-10.1,10.11
				C122.439,187.62,117.91,183.08,117.899,177.52z"/>
			<path d="M93,180.22c-1.32-0.33-2.7,0.5-3.04,1.81c-0.334,1.354,0.485,2.708,1.81,3.04c1.452,0.344,2.71-0.539,3.04-1.8v-0.01
				C95.149,181.92,94.34,180.56,93,180.22z"/>
			<path d="M119.672,63.144c0-1.381-1.119-2.5-2.5-2.5h-1.37c-1.381,0-2.5,1.119-2.5,2.5s1.119,2.5,2.5,2.5h1.37
				C118.553,65.644,119.672,64.524,119.672,63.144z"/>
			<path d="M142.698,63.144c0-1.381-1.119-2.5-2.5-2.5h-1.37c-1.381,0-2.5,1.119-2.5,2.5s1.119,2.5,2.5,2.5h1.37
				C141.579,65.644,142.698,64.524,142.698,63.144z"/>
			<path d="M127.99,85.63c5.39,0,9.97-3.83,10.899-9.11c0.251-1.381-0.695-2.668-2.03-2.89c-1.359-0.24-2.659,0.68-2.89,2.02
				c-0.495,2.775-2.909,4.98-6.03,4.98c-2.92,0-5.399-2.1-5.909-4.98c-0.23-1.34-1.54-2.26-2.891-2.02
				c-1.359,0.24-2.27,1.54-2.03,2.89v0.01C118.035,81.773,122.574,85.63,127.99,85.63z"/>
			<path d="M161.56,64.25c0.285,1.3,1.595,2.217,2.98,1.91c1.358-0.292,2.199-1.638,1.91-2.98c-0.29-1.32-1.66-2.2-2.98-1.9
				C162.136,61.567,161.267,62.887,161.56,64.25z"/>
			<path d="M200.109,171.45c-6.431-45.843-8.219-55.895-8.189-61.1c-0.01-1.49,0.14-2.74,0.36-4.64
				c0.39-3.25,0.979-8.15,1.359-18.94C195.375,37.131,177.029,4.46,128,4.46c-21.349,0-40.748,6.413-52.79,23.83
				c-0.786,1.137-0.517,2.686,0.63,3.48c1.09,0.77,2.72,0.47,3.479-0.62C89.52,16.6,105.439,9.51,128,9.46
				c46.196,0.118,62.147,30.531,60.66,76.499c-4.53,7.696-12.224,15.97-22.374,24.06c-3.311-3.624-7.271-6.878-11.596-9.49
				c7.58-6.98,12.051-16.48,12.61-26.74c0.07-1.38-0.99-2.56-2.36-2.63c-1.37-0.08-2.56,0.99-2.63,2.36
				c-0.55,10.05-5.47,19.32-13.52,25.44c-1.483,1.138-1.256,3.381,0.38,4.23c4.881,2.471,9.468,5.938,13.145,9.897
				c-10.331,7.73-22.648,15.081-34.315,20.465c-5.452-2.525-19.708-9.58-34.302-20.441c3.742-4.041,8.23-7.444,13.132-9.921
				c1.637-0.851,1.859-3.094,0.38-4.23c-8.62-6.55-13.57-16.52-13.57-27.33c0-18.994,15.362-34.36,34.36-34.36
				c12.533,0,24.29,6.832,30.37,18.26c0.637,1.215,2.143,1.687,3.37,1.04c1.22-0.65,1.689-2.16,1.04-3.38
				c-2.551-4.81-6.005-8.939-10.09-12.229c3.598-2.272,4.879-6.039,4.879-10.331l-0.01-0.03c-0.09-1.37-1.3-2.43-2.649-2.33
				c-1.38,0.09-2.431,1.28-2.341,2.65c0,3.552-1.369,6.098-4.914,6.612c-2.177-1.254-4.47-2.305-6.859-3.124
				c2.2-2.583,2.595-5.621,1.754-8.898c-0.34-1.31-1.74-2.14-3.05-1.79c-1.356,0.354-2.137,1.724-1.79,3.05
				c0.574,2.259,0.211,3.801-1.59,5.19c-0.448,0.327-0.972,0.617-1.63,0.866c-2.124-0.353-4.29-0.556-6.49-0.556
				c-21.695,0-39.36,17.545-39.36,39.36c0,11.282,4.768,21.63,12.66,28.9c-4.329,2.608-8.21,5.804-11.587,9.525
				c-10.463-8.311-18.051-16.535-22.589-24.479C66.78,73.21,67.587,60.297,71.17,48.45c0.403-1.36-0.374-2.725-1.67-3.11
				c-1.311-0.4-2.72,0.37-3.11,1.66c-3.786,12.539-4.688,26.12-4.24,39.37c0.391,11.85,1.101,16.89,1.521,19.9
				c0.229,1.71,0.39,2.84,0.38,4.26c0.013,4.832-1.676,14.806-8.16,60.92c-7.097,49.72,41.764,80.09,72.37,80.09h0.021
				C158.987,251.54,207.146,220.633,200.109,171.45z M128.28,246.54c-13.064,0-26.68-5.164-41.604-15.752l6.294-37.918
				c0.234-1.397-0.721-2.647-2.06-2.87c-1.351-0.23-2.65,0.71-2.87,2.06l-5.861,35.307c-15.986-13.315-24.291-34.168-21.34-55.228
				c6.671-47.528,8.183-55.835,8.21-61.61c-0.02-1.98-0.2-3.33-0.46-5.2c-0.293-2.088-0.685-4.917-1.025-10.135
				c12.924,16.853,36.163,32.075,55.152,41.376c-13.501,8.653-23.697,21.129-29.547,35.64c-0.521,1.28,0.1,2.74,1.38,3.25
				c1.365,0.545,2.756-0.151,3.26-1.38v-0.01c6.057-15.018,17.184-27.635,31.321-35.538c20.243-9.186,45.511-25.617,59.085-43.081
				c-0.297,4.607-0.622,7.37-0.866,9.429c-0.25,2.03-0.42,3.49-0.43,5.47c0.029,6.257,1.816,15.892,8.24,61.79
				C201.532,217.762,156.861,246.54,128.28,246.54z"/>
			<path d="M71.26,40.65c1.202,0.567,2.726,0.064,3.32-1.21c0.569-1.244,0.066-2.734-1.21-3.32c-1.221-0.57-2.761,0-3.32,1.21
				C69.47,38.58,70.01,40.07,71.26,40.65z"/>
		</g>
	</g>
</g>
</svg>
