<?xml version="1.0" encoding="iso-8859-1"?>
<!-- Generator: Adobe Illustrator 23.0.4, SVG Export Plug-In . SVG Version: 6.00 Build 0)  -->
<svg version="1.1" xmlns="http://www.w3.org/2000/svg" xmlns:xlink="http://www.w3.org/1999/xlink" x="0px" y="0px"
	 viewBox="0 0 64 64" style="enable-background:new 0 0 64 64;" xml:space="preserve">
<g id="baby">
	<path style="fill:#262626;" d="M25.191,16.68v1.771h3.444V16.68H25.191z M33.842,23.401c0,1.018-0.823,1.842-1.842,1.842
		c-1.018,0-1.842-0.823-1.842-1.842h-1.771c0,1.992,1.62,3.613,3.613,3.613s3.613-1.62,3.613-3.613H33.842z M35.365,16.68v1.771
		H38.8V16.68H35.365z M35.365,16.68v1.771H38.8V16.68H35.365z M32,25.243c-1.018,0-1.842-0.823-1.842-1.842h-1.771
		c0,1.992,1.62,3.613,3.613,3.613s3.613-1.62,3.613-3.613h-1.771C33.842,24.419,33.018,25.243,32,25.243z M28.635,16.68h-3.444
		v1.771h3.444V16.68z M36.666,7.02c0.018-0.009,0.044-0.018,0.062-0.027c1.47-0.761,2.409-2.099,2.453-3.498
		c0.053-1.744-1.426-3.374-3.161-3.489c-0.407-0.027-0.779,0.027-1.107,0.151c-0.558,0.213-1.018,0.664-1.257,1.257
		c-0.248,0.584-0.239,1.231,0.009,1.78c0.257,0.54,0.744,0.974,1.346,1.169c0.602,0.195,1.257,0.142,1.78-0.151l-0.859-1.55
		c-0.097,0.053-0.23,0.062-0.372,0.018c-0.133-0.044-0.239-0.133-0.283-0.23c-0.044-0.097-0.044-0.239,0.018-0.363
		c0.053-0.133,0.142-0.239,0.248-0.274c0.089-0.035,0.213-0.053,0.363-0.035c0.797,0.053,1.532,0.859,1.505,1.656
		c-0.027,0.753-0.611,1.532-1.496,1.984c-0.921,0.478-2.037,0.611-3.117,0.744v0.035C32.531,6.178,32.266,6.152,32,6.152
		c-7.323,0-13.282,5.959-13.282,13.282c0,7.323,5.959,13.282,13.282,13.282c7.323,0,13.282-5.959,13.282-13.282
		C45.282,13.758,41.696,8.915,36.666,7.02z M32,30.945c-6.349,0-11.511-5.162-11.511-11.511c0-6.349,5.162-11.511,11.511-11.511
		c6.349,0,11.511,5.162,11.511,11.511C43.511,25.783,38.349,30.945,32,30.945z M35.365,18.451H38.8V16.68h-3.436V18.451z M32,25.243
		c-1.018,0-1.842-0.823-1.842-1.842h-1.771c0,1.992,1.62,3.613,3.613,3.613s3.613-1.62,3.613-3.613h-1.771
		C33.842,24.419,33.018,25.243,32,25.243z M28.635,16.68h-3.444v1.771h3.444V16.68z M25.191,16.68v1.771h3.444V16.68H25.191z
		 M33.842,23.401c0,1.018-0.823,1.842-1.842,1.842c-1.018,0-1.842-0.823-1.842-1.842h-1.771c0,1.992,1.62,3.613,3.613,3.613
		s3.613-1.62,3.613-3.613H33.842z M35.365,16.68v1.771H38.8V16.68H35.365z M25.191,16.68v1.771h3.444V16.68H25.191z M35.365,16.68
		v1.771H38.8V16.68H35.365z M33.842,23.401c0,1.018-0.823,1.842-1.842,1.842c-1.018,0-1.842-0.823-1.842-1.842h-1.771
		c0,1.992,1.62,3.613,3.613,3.613s3.613-1.62,3.613-3.613H33.842z M45.078,29.644c-0.655-0.274-1.426-0.115-1.93,0.381
		c-2.515,2.506-5.065,5.056-7.606,7.589c-1.08,1.089-2.169,2.169-3.241,3.241L20.861,29.52c-0.336-0.336-0.797-0.531-1.266-0.531
		h-0.009c-0.947,0.009-1.753,0.823-1.753,1.771v19.144C17.832,57.678,24.181,64,31.991,64c7.819,0,14.176-6.322,14.176-14.097
		v-18.63C46.168,30.573,45.725,29.918,45.078,29.644z M44.397,49.903c0,6.8-5.561,12.326-12.406,12.326
		c-6.827,0-12.388-5.525-12.388-12.326V30.768l11.44,11.343c-2.258,2.249-4.481,4.463-6.632,6.588l1.248,1.257
		c3.568-3.524,7.332-7.287,11.139-11.086l7.597-7.597V49.903z"/>
	<path style="fill:#FEEAA0;" d="M32,7.923c-6.349,0-11.511,5.162-11.511,11.511c0,6.349,5.162,11.511,11.511,11.511
		c6.349,0,11.511-5.162,11.511-11.511C43.511,13.085,38.349,7.923,32,7.923z M25.191,16.68h3.444v1.771h-3.444V16.68z M32,27.014
		c-1.992,0-3.613-1.62-3.613-3.613h1.771c0,1.018,0.823,1.842,1.842,1.842c1.018,0,1.842-0.823,1.842-1.842h1.771
		C35.613,25.393,33.992,27.014,32,27.014z M38.8,18.451h-3.436V16.68H38.8V18.451z"/>
	<path style="fill:#D89F00;" d="M44.397,31.273v18.63c0,6.8-5.561,12.326-12.406,12.326c-6.827,0-12.388-5.525-12.388-12.326V30.768
		l11.44,11.343c-2.258,2.249-4.481,4.463-6.632,6.588l1.248,1.257c3.568-3.524,7.332-7.287,11.139-11.086L44.397,31.273z"/>
</g>
<g id="Layer_1">
</g>
</svg>
