<svg xmlns="http://www.w3.org/2000/svg" viewBox="0 0 32 32"><title>71-Speech Bubble-Question</title><g id="_71-Speech_Bubble-Question" data-name="71-Speech Bubble-Question"><path d="M31,32a1,1,0,0,1-.71-.29L24.59,26H5a5,5,0,0,1-5-5V5A5,5,0,0,1,5,0H27a5,5,0,0,1,5,5V31a1,1,0,0,1-1,1ZM5,2A3,3,0,0,0,2,5V21a3,3,0,0,0,3,3H25a1,1,0,0,1,.71.29L30,28.59V5a3,3,0,0,0-3-3Z"/><path d="M17,16H15V12a1,1,0,0,1,1-1h2a2,2,0,0,0,0-4H14a2,2,0,0,0-2,2H10a4,4,0,0,1,4-4h4a4,4,0,0,1,0,8H17Z"/><rect x="15" y="18" width="2" height="2"/></g></svg>