<?xml version="1.0" encoding="utf-8"?>
<!-- Generator: Adobe Illustrator 24.0.0, SVG Export Plug-In . SVG Version: 6.00 Build 0)  -->
<svg version="1.1" id="Layer_1" xmlns="http://www.w3.org/2000/svg" xmlns:xlink="http://www.w3.org/1999/xlink" x="0px" y="0px"
	 viewBox="0 0 256 256" enable-background="new 0 0 256 256" xml:space="preserve">
<g>
</g>
<g>
	<path fill="#FEB69F" d="M102.83,82.284v23.57c0,11.33-5.79,21.89-13.39,27.34c-0.87,0.67-1.77,1.31-2.69,1.88
		c-11.3,7.21-25.79,7.18-37.06,0.01c-0.92-0.58-1.82-1.21-2.7-1.89c-8.17-6.36-13.38-16.24-13.38-27.34v-21.08
		c6.18,1.16,12.48-3.37,13.05-10.06c2.82,0.44,6.05-0.31,8.61-2.38c4.77,9.24,18.21,8.59,22.07-1.07c3.59,2.91,8.57,3.24,12.45,1.08
		C90.42,78.954,96.68,83.454,102.83,82.284z"/>
	<path fill="#72C3E9" d="M252.16,187.454v40.21h-120.1v-40.21c0-22.67,12.09-44.67,33.89-57.13c2.61,2.31,5.37,4.18,8.43,5.71
		c10.94,5.51,23.97,5.5,34.94-0.02c2.96-1.49,5.79-3.39,8.41-5.7C238.82,142.174,252.16,164.114,252.16,187.454z"/>
	<circle fill="#EFEFEF" cx="52.014" cy="103.51" r="11.113"/>
	<path fill="#EFEFEF" d="M116.53,116.034c2.06,10.56-5.28,18.8-14.05,20.32c-4.31,0.75-8.98-0.13-13.04-3.16
		c7.6-5.45,13.39-16.01,13.39-27.34v-23.57c-6.15,1.17-12.41-3.33-13.04-9.94c-3.88,2.16-8.86,1.83-12.45-1.08
		c-3.86,9.66-17.3,10.31-22.07,1.07c-2.56,2.07-5.79,2.82-8.61,2.38c-0.57,6.69-6.87,11.22-13.05,10.06v21.08
		c0,11.1,5.21,20.98,13.38,27.34c-4.09,3.05-8.75,3.92-13.05,3.17h-0.01c-8.78-1.55-16.06-9.85-14.02-20.33
		c-13.99-2.43-19.15-19.93-8.62-29.57c-9.19-10.07-3.54-26.32,9.9-28.49c-1.58-14.89,15.57-24.57,27.54-15.38
		c7.21-18.29,32.76-19.18,41.27-1.51c12.13-6.52,26.7,3.2,25.24,16.89c13.43,2.17,19.11,18.41,9.91,28.49
		C135.69,96.104,130.52,113.604,116.53,116.034z"/>
	<path fill="#FC5D3D" d="M132.06,205.824v21.84H3.84v-21.84c0-26.7,11.81-51.54,30.09-69.46h0.01c4.3,0.75,8.96-0.12,13.05-3.17
		c0.88,0.68,1.78,1.31,2.7,1.89c11.27,7.17,25.76,7.2,37.06-0.01c0.92-0.57,1.82-1.21,2.69-1.88c4.06,3.03,8.73,3.91,13.04,3.16
		C121.12,154.604,132.06,179.574,132.06,205.824z"/>
	<path fill="#FFCBC3" d="M124.686,223.168c-1.381,0-2.5-1.119-2.5-2.5v-3.525c0-1.381,1.119-2.5,2.5-2.5s2.5,1.119,2.5,2.5v3.525
		C127.186,222.049,126.067,223.168,124.686,223.168z M124.686,209.644c-1.381,0-2.5-1.119-2.5-2.5
		c0-24.64-8.747-45.623-24.186-61.813c-0.953-0.999-0.916-2.582,0.084-3.534c1-0.953,2.582-0.915,3.534,0.084
		c16.278,17.07,25.567,39.258,25.567,65.264C127.186,208.524,126.067,209.644,124.686,209.644z"/>
	<path fill="#FEB69F" d="M86.75,135.074c-0.27,14.2-8.47,25.58-18.53,25.58c-10.07,0-18.26-11.37-18.53-25.57
		C60.96,142.254,75.45,142.284,86.75,135.074z"/>
	<circle fill="#EFEFEF" cx="84.422" cy="103.51" r="11.113"/>
	<path fill="#7C7B7A" d="M232.864,33.496l-7.066-4.837c-1.198,6.32-6.725,10.898-13.155,10.898h-42.101
		c-9.673,0-17.712,7.83-17.712,17.716l-0.004,11.299h78.05l4.88-4.952C244.42,54.869,242.959,40.379,232.864,33.496z"/>
	<path fill="#FEB69F" d="M230.88,68.573c-0.012,20.69-0.01,13.157-0.01,32.562c0,2.32-0.18,4.59-0.59,6.79v0.01
		c-1.56,8.93-6.12,16.72-12.55,22.38c-2.62,2.31-5.45,4.21-8.41,5.7c-10.97,5.52-24,5.53-34.94,0.02c-3.06-1.53-5.82-3.4-8.43-5.71
		c-6.38-5.66-10.93-13.4-12.52-22.39c-0.42-2.18-0.6-4.46-0.6-6.8V68.573H230.88z"/>
	<path fill="#FFB69F" d="M153.43,107.934h-4.55c-6.21,0-11.23-5.03-11.23-11.23c0-6.19,5.01-11.23,11.23-11.23h3.95v15.66
		C152.83,103.474,153.01,105.754,153.43,107.934z"/>
	<path fill="#FFB69F" d="M246.04,96.704c0,6.19-5,11.22-11.22,11.22h-4.54c0.41-2.2,0.59-4.47,0.59-6.79v-15.66h3.95
		C241.03,85.474,246.04,90.494,246.04,96.704z"/>
	<path fill="#C5E5FE" d="M243.031,224.338c-1.381,0-2.5-1.119-2.5-2.5v-3c0-1.381,1.119-2.5,2.5-2.5s2.5,1.119,2.5,2.5v3
		C245.531,223.219,244.412,224.338,243.031,224.338z M243.031,211.338c-1.381,0-2.5-1.119-2.5-2.5v-21.382
		c0-17.966-8.871-34.824-23.73-45.094c-1.136-0.785-1.42-2.342-0.635-3.478c0.785-1.136,2.343-1.421,3.478-0.635
		c16.21,11.204,25.888,29.599,25.888,49.207v21.382C245.531,210.219,244.412,211.338,243.031,211.338z"/>
	<circle fill="#EFEFEF" cx="175.643" cy="98.153" r="11.113"/>
	<circle fill="#EFEFEF" cx="208.051" cy="98.153" r="11.113"/>
	<path fill="#FEB69F" d="M209.32,136.014c-0.68,11.25-8.25,20.1-17.47,20.1c-9.22,0-16.78-8.84-17.47-20.08
		C185.32,141.544,198.35,141.534,209.32,136.014z"/>
	<path d="M22.412,230.168c1.437,0,2.508-1.147,2.518-2.482c0.039-5.569,0.249-21.356,1.336-32.441
		c3.716,4.702,9.173,7.166,14.781,7.166c4.825,0,9.65-1.837,13.323-5.51c0.977-0.976,0.977-2.559,0-3.535
		c-0.976-0.977-2.56-0.977-3.535,0c-2.615,2.614-6.091,4.054-9.788,4.054c-12.24,0-18.512-14.905-9.788-23.63
		c0.976-0.976,0.976-2.559,0-3.536c-0.977-0.976-2.559-0.976-3.536,0c-4.427,4.427-6.166,10.526-5.257,16.283
		c-2.09,9.689-2.471,31.903-2.536,41.114C19.919,229.031,21.031,230.159,22.412,230.168z"/>
	<path d="M95.397,197.42c-3.697,0-7.173-1.439-9.788-4.054c-0.976-0.977-2.56-0.977-3.535,0c-0.977,0.976-0.977,2.559,0,3.535
		c3.673,3.673,8.498,5.51,13.323,5.51c5.598,0,11.061-2.457,14.784-7.169c1.091,11.104,1.291,26.881,1.326,32.442
		c0.009,1.375,1.126,2.484,2.5,2.484c0.005,0,0.011,0,0.017,0c1.38-0.009,2.493-1.135,2.484-2.516
		c-0.059-9.19-0.425-31.364-2.529-41.115c0.909-5.757-0.83-11.856-5.257-16.283c-0.977-0.977-2.56-0.976-3.536,0
		c-0.977,0.977-0.977,2.56,0,3.536C113.903,182.509,107.646,197.42,95.397,197.42z"/>
	<path d="M72.422,120.176c-1.106,1.071-4.255,2.509-7.471,0.654c0.056-1.195-0.034-2.11-0.06-2.329
		c-0.159-1.369-1.4-2.346-2.764-2.192c-1.369,0.155-2.354,1.393-2.203,2.762c0.141,1.281,0.007,3.564-0.728,4.398
		c-0.913,1.036-0.813,2.616,0.224,3.528c1.036,0.913,2.616,0.812,3.528-0.224c0.276-0.313,0.51-0.654,0.717-1.009
		c4.556,1.982,9.55,0.654,12.267-2.029c0.983-0.969,0.994-2.552,0.024-3.535C74.988,119.217,73.404,119.206,72.422,120.176z"/>
	<path d="M67.271,89.984c3.305,0,6.611-0.954,8.626-2.861c1.003-0.949,1.046-2.531,0.098-3.534s-2.531-1.046-3.534-0.098
		c-2.086,1.973-8.293,1.974-10.379,0c-1.003-0.949-2.585-0.905-3.534,0.098s-0.905,2.585,0.098,3.534
		C60.661,89.03,63.966,89.984,67.271,89.984z"/>
	<path d="M52.014,117.123c7.494,0,13.591-6.088,13.611-13.577c0-0.011,0.003-0.021,0.003-0.032c0-1.019,0.829-1.848,1.848-1.848
		h1.487c1.017,0,1.844,0.826,1.848,1.842c0,0.002,0,0.005,0,0.007c0,7.5,6.11,13.61,13.61,13.61c7.51,0,13.61-6.11,13.62-13.61
		c-0.01-7.51-6.12-13.61-13.62-13.62c-5.34,0.007-9.962,3.11-12.189,7.603c-0.972-0.53-2.085-0.832-3.268-0.832h-1.487
		c-1.183,0-2.296,0.302-3.268,0.832c-2.226-4.495-6.848-7.599-12.194-7.599c-7.506,0-13.613,6.106-13.613,13.613
		C38.401,111.016,44.508,117.123,52.014,117.123z M84.42,94.894c4.74,0.01,8.61,3.88,8.62,8.62c-0.01,4.74-3.88,8.6-8.62,8.61
		c-4.738-0.01-8.597-3.867-8.61-8.604c0-0.002,0.001-0.004,0.001-0.007c0-0.003,0-0.006,0-0.009
		C75.826,98.769,79.683,94.904,84.42,94.894z M52.014,94.897c4.749,0,8.612,3.864,8.612,8.613s-3.863,8.612-8.612,8.612
		s-8.613-3.863-8.613-8.612S47.265,94.897,52.014,94.897z"/>
	<circle cx="180.73" cy="39.554" r="2.5"/>
	<path d="M196.054,117.155c-1,0.97-3.962,2.45-7.134,0.847c0.076-1.288-0.023-2.288-0.05-2.518c-0.159-1.369-1.4-2.35-2.764-2.192
		c-1.369,0.155-2.354,1.393-2.203,2.762c0.141,1.281,0.007,3.564-0.728,4.398c-0.913,1.036-0.813,2.616,0.224,3.528
		c1.036,0.913,2.616,0.812,3.528-0.224c0.242-0.275,0.449-0.574,0.638-0.882c4.665,1.888,9.493,0.314,12-2.161
		c0.983-0.97,0.993-2.553,0.023-3.535C198.619,116.195,197.036,116.185,196.054,117.155z"/>
	<path d="M184.698,80.147c4.784,2.583,9.501,2.59,14.297,0c1.212-0.655,1.663-2.167,1.01-3.381c-0.653-1.214-2.168-1.67-3.383-1.02
		c-3.312,1.771-6.187,1.799-9.552,0c-1.214-0.652-2.728-0.2-3.383,1.013C183.031,77.973,183.484,79.49,184.698,80.147z"/>
	<path d="M221.66,98.154c0-7.51-6.11-13.61-13.61-13.61c-5.341,0-9.964,3.101-12.191,7.595c-0.972-0.53-2.085-0.831-3.267-0.831
		h-1.487c-1.183,0-2.296,0.302-3.268,0.832c-2.226-4.495-6.848-7.599-12.194-7.599c-7.506,0-13.613,6.106-13.613,13.613
		c0,7.506,6.106,13.612,13.613,13.612c7.494,0,13.591-6.088,13.611-13.577c0-0.011,0.003-0.021,0.003-0.032
		c0-1.019,0.829-1.848,1.848-1.848h1.487c1.019,0,1.848,0.829,1.848,1.848c0,0.001,0,0.001,0,0.002
		c0.002,7.498,6.101,13.606,13.61,13.606C215.56,111.764,221.66,105.654,221.66,98.154z M175.643,106.766
		c-4.749,0-8.613-3.863-8.613-8.612s3.864-8.613,8.613-8.613s8.612,3.864,8.612,8.613S180.392,106.766,175.643,106.766z
		 M208.05,106.764c-4.74-0.01-8.6-3.87-8.61-8.61c0.01-4.74,3.87-8.6,8.61-8.61c4.74,0.01,8.61,3.87,8.61,8.61
		C216.66,102.894,212.79,106.754,208.05,106.764z"/>
	<path d="M158.605,227.668v-48.51c0-1.381-1.119-2.5-2.5-2.5s-2.5,1.119-2.5,2.5v48.51c0,1.381,1.119,2.5,2.5,2.5
		S158.605,229.049,158.605,227.668z"/>
	<path d="M227.59,198.654c1.38,0,2.5-1.12,2.5-2.5v-16.99c0-1.38-1.12-2.5-2.5-2.5s-2.5,1.12-2.5,2.5v16.99
		C225.09,197.534,226.21,198.654,227.59,198.654z"/>
	<path d="M225.09,227.664c0,1.38,1.12,2.5,2.5,2.5s2.5-1.12,2.5-2.5v-11.51c0-1.37-1.12-2.5-2.5-2.5s-2.5,1.13-2.5,2.5V227.664z"/>
	<circle cx="227.59" cy="206.154" r="2.5"/>
	<path d="M252.16,230.165c1.381,0,2.5-1.119,2.5-2.5v-40.21c0-23.132-12.502-44.91-32.833-57.606
		c5.182-5.386,8.828-12.131,10.495-19.424h2.498c7.565,0,13.72-6.155,13.72-13.72c0-7.571-6.155-13.73-13.72-13.73h-1.444
		l0.004-13.38l4.16-4.22c9.767-9.861,8.103-26.179-3.27-33.95l-7.06-4.83c-1.473-1.004-3.53-0.183-3.87,1.6
		c-0.97,5.14-5.47,8.86-10.7,8.86h-21.91c-1.37,0-2.5,1.13-2.5,2.5c0,1.38,1.13,2.5,2.5,2.5h21.91c6.28,0,11.98-3.7,14.52-9.43
		l4.29,2.93c8.737,5.974,10.147,18.598,2.53,26.31l-4.149,4.208H155.33v-8.798c0.01-8.39,6.84-15.22,15.21-15.22
		c1.771,0,2.69-1.262,2.69-2.5c0-1.261-0.948-2.5-2.69-2.5c-11.074,0.021-20.21,8.96-20.21,20.22c0,12.565,0,7.683,0,25.7h-1.45
		c-7.571,0-13.73,6.16-13.73,13.73s6.159,13.73,13.73,13.73h2.512c1.682,7.377,5.261,14.011,10.482,19.435
		c-17.379,10.978-28.684,28.17-31.572,47.628c-4.481-14.731-12.383-28.483-23.143-39.93c7.845-3.249,12.842-10.861,12.153-19.626
		c13.547-4.084,18.43-20.906,9.176-31.625c7.928-10.991,2.428-26.708-10.645-30.33c-0.053-13.683-14.062-23.106-26.76-18.152
		c-9.96-16.508-34.334-15.841-43.404,1.089C34.79,31.816,18.66,41.219,18.589,55.986C5.524,59.604,0.022,75.321,7.954,86.317
		c-9.237,10.708-4.38,27.539,9.178,31.624c-0.675,8.701,4.286,16.348,12.132,19.624c-1.989,2.113-3.903,4.302-5.704,6.549
		c-0.88,1.109-0.67,2.665,0.39,3.52c1.095,0.871,2.658,0.679,3.51-0.39c2.298-2.875,4.782-5.643,7.38-8.244
		c4.41,0.461,8.531-0.584,12.082-2.755c0.105,0.073,0.212,0.139,0.317,0.211c0.777,15.075,9.812,26.698,20.98,26.698
		c11.167,0,20.202-11.625,20.981-26.702c0.103-0.07,0.204-0.133,0.307-0.205c3.652,2.232,7.838,3.172,12.061,2.734
		c17.8,17.864,27.992,42.155,27.992,66.843v21.84c0,1.381,1.119,2.5,2.5,2.5s2.5-1.119,2.5-2.5c0-23.671,0-15.722,0-40.21
		c0-22.173,11.601-42.262,31.126-54.075c1.626,1.323,3.952,2.935,6.324,4.223c1.317,11.891,9.811,21.012,19.84,21.012
		c10.041,0,18.537-9.132,19.842-21.038c2.28-1.247,4.533-2.78,6.308-4.217c19.573,11.671,31.661,32.246,31.661,54.095v40.21
		C249.66,229.045,250.779,230.165,252.16,230.165z M48.727,77.324c1.994-0.077,3.991-0.606,5.792-1.534
		c6.127,7.914,18.355,7.352,23.778-0.967c3,1.472,6.477,1.803,9.698,0.929c1.886,5.411,6.896,8.978,12.335,9.204v20.898
		c0,17.772-14.413,32.229-32.38,32.085c-17.541-0.14-31.84-14.305-31.84-32.085V87.443C41.938,87.196,47.145,83.153,48.727,77.324z
		 M68.22,158.154c-7.566,0-14.043-8.034-15.653-18.65c9.591,4.458,21.191,4.716,31.306-0.005
		C82.263,150.12,75.786,158.154,68.22,158.154z M93.785,132.866c7.124-6.587,11.545-16.934,11.545-27.012v-23.57
		c0-1.561-1.415-2.745-2.967-2.456c-4.64,0.885-9.587-2.507-10.084-7.721c-0.171-1.795-2.132-2.822-3.705-1.947
		c-3.059,1.702-6.939,1.367-9.66-0.838c-1.307-1.059-3.271-0.55-3.896,1.014c-3.064,7.666-13.738,8.191-17.527,0.851
		c-0.732-1.415-2.571-1.787-3.793-0.797c-1.877,1.518-4.366,2.211-6.653,1.854c-1.425-0.223-2.753,0.81-2.876,2.258
		c-0.445,5.232-5.391,8.702-10.098,7.815c-1.542-0.29-2.961,0.897-2.961,2.457v21.08c0,10.216,4.202,19.984,11.618,26.976
		c-10.301,4.684-22.746-4.087-20.364-16.319c0.267-1.372-0.645-2.701-2.026-2.94c-11.976-2.08-16.374-17.01-7.36-25.263
		c1.018-0.931,1.088-2.51,0.159-3.529c-7.869-8.622-3.026-22.483,8.452-24.337c1.311-0.211,2.228-1.411,2.087-2.731
		c-1.348-12.712,13.306-20.985,23.532-13.133c1.32,1.014,3.241,0.475,3.848-1.066c6.407-16.253,29.119-17.066,36.692-1.342
		c0.618,1.282,2.184,1.792,3.436,1.117c10.393-5.586,22.817,2.731,21.571,14.422c-0.141,1.321,0.776,2.521,2.087,2.733
		c11.49,1.857,16.327,15.721,8.462,24.337c-0.93,1.019-0.859,2.599,0.159,3.53c9.013,8.243,4.628,23.18-7.36,25.262
		c-1.381,0.239-2.294,1.568-2.026,2.941C116.482,128.844,103.968,137.411,93.785,132.866z M208.196,133.781
		c-10.107,5.086-22.374,5.217-32.699,0.017c-12.363-6.18-20.167-18.797-20.167-32.664v-30.06h73.048v30.06
		C228.378,115.298,220.323,127.678,208.196,133.781z M234.82,87.974c4.808,0,8.72,3.917,8.72,8.73c0,4.808-3.912,8.72-8.72,8.72
		h-1.661c0.102-1.001,0.211-2.77,0.211-4.29l0.004-13.16H234.82z M148.88,105.435c-4.814,0-8.73-3.916-8.73-8.73
		s3.916-8.73,8.73-8.73h1.45v13.16c0,1.525,0.096,3.169,0.212,4.3H148.88z M191.85,153.614c-6.64,0-12.401-5.663-14.332-13.497
		c8.872,3.264,19.093,3.503,28.669-0.022C204.263,147.941,198.5,153.614,191.85,153.614z"/>
	<path d="M21.02,151.684c-1.12-0.73-2.73-0.38-3.46,0.73c-0.777,1.207-0.384,2.744,0.73,3.46c1.163,0.766,2.714,0.422,3.46-0.73
		C22.5,153.994,22.17,152.444,21.02,151.684z"/>
	<path d="M3.84,230.164c1.38,0,2.5-1.12,2.5-2.5v-21.84c0-14.4,3.63-29.01,10.5-42.26c0.609-1.16,0.202-2.702-1.07-3.37
		c-1.2-0.62-2.75-0.12-3.37,1.07c-7.017,13.521-11.06,28.732-11.06,44.56v21.84C1.34,229.044,2.46,230.164,3.84,230.164z"/>
</g>
</svg>
