<?xml version="1.0" encoding="iso-8859-1"?>
<!-- Generator: Adobe Illustrator 23.0.4, SVG Export Plug-In . SVG Version: 6.00 Build 0)  -->
<svg version="1.1" xmlns="http://www.w3.org/2000/svg" xmlns:xlink="http://www.w3.org/1999/xlink" x="0px" y="0px"
	 viewBox="0 0 64 64" style="enable-background:new 0 0 64 64;" xml:space="preserve">
<g id="pregnant_woman">
	<path style="fill:#262626;" d="M25.413,0c-4.555,0-8.255,3.7-8.255,8.255s3.7,8.263,8.255,8.263c4.555,0,8.263-3.709,8.263-8.263
		S29.968,0,25.413,0z M25.413,14.859c-3.634,0-6.596-2.962-6.596-6.604c0-3.634,2.962-6.596,6.596-6.596
		c3.642,0,6.604,2.962,6.604,6.596C32.017,11.897,29.055,14.859,25.413,14.859z M39.418,32.78c-0.597-0.39-1.153-0.747-1.609-1.079
		c1.269-1.211,1.834-2.514,1.684-3.899c-0.241-2.215-2.439-4.414-6.206-6.181c-2.821-1.319-3.634-2.414-3.866-2.945
		c-0.39-0.904-1.236-1.444-2.215-1.46l-2.804,0.05c-4.273,0.075-7.749,3.609-7.749,7.89v9.242c0,2.323,1.717,4.248,3.949,4.58
		c0.183,1.079,0.415,3.551-0.796,5.708c-2.356,4.215-0.697,9.624,2.273,12.412c0.879,0.83,0.921,4.43,0.664,6.72l0.647,0.075
		l0.183,0.017L24.392,64c0-0.025,0.008-0.058,0.008-0.091c0.025-0.216,0.058-0.548,0.091-0.971c0.124-1.958,0.166-5.691-1.278-7.052
		c-2.456-2.298-3.899-6.928-1.958-10.387c1.344-2.406,1.236-5.044,1.029-6.463h9.591c1.917,0,3.468-1.56,3.468-3.468v-0.407
		c0-1.717-1.394-3.111-3.111-3.111h-8.595v-6.131h-1.659v6.198c0,0.879,0.713,1.593,1.593,1.593h8.662
		c0.796,0,1.452,0.647,1.452,1.452v0.407c0,0.996-0.813,1.809-1.809,1.809H21.281c-1.634,0-2.97-1.336-2.97-2.978v-9.242
		c0-3.377,2.746-6.173,6.123-6.231l2.804-0.05h0.008c0.282,0,0.531,0.174,0.655,0.456c0.581,1.336,2.149,2.605,4.679,3.792
		c3.169,1.485,5.094,3.261,5.268,4.862c0.108,1.021-0.506,2.049-1.825,3.053c-0.191,0.149-0.315,0.373-0.324,0.614
		c-0.017,0.232,0.075,0.473,0.241,0.639c0.639,0.631,1.535,1.211,2.58,1.883c3.36,2.174,7.965,5.152,7.044,12.536
		c-0.614,4.936-6.156,9.425-6.214,9.475c-0.191,0.158-0.307,0.39-0.307,0.647v7.077h1.659v-6.687
		c1.261-1.087,5.899-5.36,6.513-10.313C48.254,38.496,42.935,35.061,39.418,32.78z"/>
	<path style="fill:#F2D8A7;" d="M32.017,8.255c0,3.642-2.962,6.604-6.604,6.604c-3.634,0-6.596-2.962-6.596-6.604
		c0-3.634,2.962-6.596,6.596-6.596C29.055,1.659,32.017,4.621,32.017,8.255z"/>
	<path style="fill:#97D8F2;" d="M45.565,46.71c-0.614,4.936-6.156,9.425-6.214,9.475c-0.191,0.158-0.307,0.39-0.307,0.647v7.077
		H24.492c0.124-1.958,0.166-6.662-1.278-8.023c-2.456-2.298-3.899-6.928-1.958-10.387c1.344-2.406,1.236-5.044,1.029-6.463h9.591
		c1.917,0,3.468-1.56,3.468-3.468v-0.407c0-1.717-1.394-3.111-3.111-3.111h-8.595v-6.131h-1.659v6.198
		c0,0.879,0.713,1.593,1.593,1.593h8.662c0.796,0,1.452,0.647,1.452,1.452v0.407c0,0.996-0.813,1.809-1.809,1.809H21.281
		c-1.634,0-2.97-1.336-2.97-2.978v-9.242c0-3.377,2.746-6.173,6.123-6.231l2.804-0.05h0.008c0.282,0,0.531,0.174,0.655,0.456
		c0.581,1.336,2.149,2.605,4.679,3.792c3.169,1.485,5.094,3.261,5.268,4.862c0.108,1.021-0.506,2.049-1.825,3.053
		c-0.191,0.149-0.315,0.373-0.324,0.614c-0.017,0.232,0.075,0.473,0.241,0.639c0.639,0.631,1.535,1.211,2.58,1.883
		C41.882,36.347,46.486,39.326,45.565,46.71z"/>
</g>
<g id="Layer_1">
</g>
</svg>
